<svg xmlns="http://www.w3.org/2000/svg" viewBox="0 0 349.64 349.64"><defs><style>.cls-1,.cls-5{fill:#cccccb;}.cls-1{stroke:#6f6b70;}.cls-1,.cls-3,.cls-4{stroke-miterlimit:10;}.cls-1,.cls-4{stroke-width:3px;}.cls-2{fill:#231f20;}.cls-3,.cls-4{fill:none;}.cls-3{stroke:#231f20;}.cls-4{stroke:#000;}</style></defs><g id="Layer_1" data-name="Layer 1"><circle class="cls-1" cx="174.82" cy="174.82" r="173.32"/><path class="cls-2" d="M176,304.3c0,26.91-.23,53.83-.35,80.74-.13,27.22-.14,54.43.27,81.64l.09,5.48a14.79,14.79,0,0,0,.34,3.7,10.36,10.36,0,0,0,3.78,5.35c3.89,3,9.17,4.19,14,4.12.06,0,0-5,0-5a23.81,23.81,0,0,1-12.5-3.09,12.42,12.42,0,0,1-4.28-4c-1.32-2.15-1.32-4.41-1.36-6.86q-.33-19.61-.37-39.21c-.08-26.11.12-52.21.26-78.3q.13-22.27.15-44.54c0-.19,0-2.5,0-2.5s0,2.47,0,2.5Z" transform="translate(-122.82 -221.42)"/><path class="cls-3" d="M232.89,388.11q-10.35.06-20.11.39c-8.36.27-11.73.53-14.56,3.06-3.6,3.22-4.16,8.24-4.22,11.09" transform="translate(-122.82 -221.42)"/><path class="cls-3" d="M194,402.65v54.79c0,.66.62,9.7,7.79,13.49a13.66,13.66,0,0,0,7,1.51" transform="translate(-122.82 -221.42)"/><path class="cls-3" d="M208.83,472.44h51.5l1.59,0c2.52,0,4.39,0,4.42,0,2.25,0,11.65-4.88,16.66-11.65,14.5-19.62,39.37-119,44.67-138.14,1.09-3.93,3.61-12.56,11.3-18.64,7.35-5.81,16.21-6.75,22.19-6.7" transform="translate(-122.82 -221.42)"/><line class="cls-3" x1="238.34" y1="75.92" x2="273.52" y2="75.92"/><path class="cls-3" d="M396.56,297.33l8.94.11a23.29,23.29,0,0,1,9.06,2.12c6.61,3.08,9.79,8.59,12.27,13a53,53,0,0,1,6.42,26.59" transform="translate(-122.82 -221.42)"/><path class="cls-2" d="M194.11,485.33h52c6.64,0,13.28-.09,19.92,0a32.22,32.22,0,0,0,10.06-1.17,25.35,25.35,0,0,0,9.69-5.53c5.64-5.16,8.91-12.45,11.61-19.46,3.66-9.5,6.65-19.29,9.72-29q3.57-11.24,6.9-22.56c2-6.79,3.78-13.61,5.64-20.44,4.21-15.5,8.63-30.95,13-46.41,1.33-4.7,2.63-9.42,4.18-14.05a50.06,50.06,0,0,1,4-9.41,18.93,18.93,0,0,1,11.47-9c6.74-1.9,14.05-1.89,21-2.06,9.47-.24,19.05-.62,28.51.27,4.32.4,9.14,1,12.9,3.36,4.94,3.14,7,9.43,8.58,14.75a54.29,54.29,0,0,1,1.6,7c.17,1.13.3,2.27.4,3.41,0,.58.09,1.16.11,1.74,0,.31,0,.61,0,.91.05,1.43,0-3.56,0-1.9,0,1,0,2.05,0,3.08,0,.49,0,1,0,1.49,0,0,0,.49,0,.25a80.21,80.21,0,0,0-.53-13.77,55.22,55.22,0,0,0-3.67-13.14c-1.82-4.34-4.4-8.18-8.84-10-5.32-2.19-11.5-2.4-17.16-2.6-9.85-.34-19.81-.11-29.65.42-5.78.31-12.18.63-17.41,3.37s-8,7.83-10,13c-1.6,4.08-2.82,8.31-4,12.52-1.54,5.33-3,10.69-4.54,16q-3.44,12.18-6.85,24.36c-2.18,7.82-4.22,15.68-6.4,23.5-4,14.44-8.52,28.76-13.18,43-2.91,8.89-5.63,18.05-10,26.34-3.36,6.32-8.06,11.93-14.83,14.69-4.54,1.85-9.19,2-14,2H194.11s0,5,0,5Z" transform="translate(-122.82 -221.42)"/><line class="cls-3" x1="277.74" y1="75.92" x2="273.52" y2="75.92"/><path class="cls-3" d="M232.89,376.89H201.42c-3.32-.07-6.1-1.41-7.06-3.64a4.54,4.54,0,0,1-.36-1.8" transform="translate(-122.82 -221.42)"/><line class="cls-3" x1="71.18" y1="150.03" x2="71.18" y2="137.97"/><path class="cls-3" d="M194,359.39V310a5.68,5.68,0,0,1,2.11-4.47,5.2,5.2,0,0,1,3-1" transform="translate(-122.82 -221.42)"/><path class="cls-2" d="M249,294.83H180.38s0,5,0,5H249s0-5,0-5Z" transform="translate(-122.82 -221.42)"/><line class="cls-3" x1="76.27" y1="83.14" x2="126.18" y2="83.14"/><path class="cls-2" d="M176,303.52v-3.14c0-.38,0-.76,0-1.14-.05-1.65-.13,6.06,0,4.24v.09a3.91,3.91,0,0,1,2.2-3.22,5.08,5.08,0,0,1,2.09-.52c.06,0,0-5,0-5a5,5,0,0,0-2.73.9,3.84,3.84,0,0,0-1.44,2.11,5.9,5.9,0,0,0-.15,1.33c0,1.62-.06,3.26,0,4.89l0-2.41v1.87c0,.59,0,1.18,0,1.77a3,3,0,0,0,0,.73,3.53,3.53,0,0,1,0-.73v-1.77Z" transform="translate(-122.82 -221.42)"/><line class="cls-3" x1="57.47" y1="75.92" x2="58.46" y2="75.92"/><line class="cls-3" x1="53.17" y1="82.88" x2="53.17" y2="82.1"/><path class="cls-2" d="M350.33,398.74h69.23c1,0,2-.07,3.05,0a11.48,11.48,0,0,1,7.56,4,11.68,11.68,0,0,1,2.14,4,13.6,13.6,0,0,1,.43,1.89c0,.22.06.45.08.67s0,.33,0,.49q.09,2.32,0-4c0,1,0,2.05,0,3.08,0,.49,0,1,0,1.49,0,0,0,.49,0,.25.16-5.38.23-11-4.5-14.6a11.28,11.28,0,0,0-6.79-2.32H350.33s0,5,0,5Z" transform="translate(-122.82 -221.42)"/><path class="cls-2" d="M432.84,408.25v65.53c0,.19,0,2.5,0,2.5s0-2.47,0-2.5V408.25c0-.19,0-2.5,0-2.5s0,2.48,0,2.5Z" transform="translate(-122.82 -221.42)"/><path class="cls-2" d="M326.33,485.37h97.34a8.85,8.85,0,0,0,9.2-8.36c.1-1.86.08-3.77,0-5.64,0-.32,0,.41,0,.26,0,.49,0,1,0,1.49,0,1,0,2.05,0,3.08,0,.66.24-5.82-.06-3.44a7.4,7.4,0,0,1-.17.94,8.73,8.73,0,0,1-1,2.5,8.5,8.5,0,0,1-4.48,3.65,10.36,10.36,0,0,1-3.45.52H328a5.09,5.09,0,0,0-1.51,0,.67.67,0,0,1-.2,0s0,5,0,5Z" transform="translate(-122.82 -221.42)"/><path class="cls-3" d="M350.33,411h65.45a8.2,8.2,0,0,1,4.86,2.19,8.4,8.4,0,0,1,2.45,6.15" transform="translate(-122.82 -221.42)"/><path class="cls-3" d="M423.09,419.3v45.47" transform="translate(-122.82 -221.42)"/><path class="cls-3" d="M326.33,471.07h90.53a6.2,6.2,0,0,0,4.61-1.89,6.14,6.14,0,0,0,1.62-4.41" transform="translate(-122.82 -221.42)"/></g><g id="Layer_2" data-name="Layer 2"><line class="cls-4" x1="310.05" y1="180.83" x2="310.05" y2="256.91"/><line class="cls-4" x1="53.17" y1="77.88" x2="53.17" y2="256.91"/><path class="cls-5" d="M457.59,392.76c-3.53-7.34-11.56-10.59-19-12.33a2.57,2.57,0,0,0-2.82,1.15,2.51,2.51,0,0,0,.39,3,49.44,49.44,0,0,1,10.27,12.26c1.64,2.76,6,.25,4.32-2.52a54.09,54.09,0,0,0-11.06-13.28l-2.43,4.18a34.4,34.4,0,0,1,10,3.64,14.82,14.82,0,0,1,6,6.4,2.5,2.5,0,0,0,4.32-2.53Z" transform="translate(-122.82 -221.42)"/><path class="cls-5" d="M432.37,400.89c.23.67.46,1.34.7,2,.12.33.24.66.37,1a3.18,3.18,0,0,0,.21.54.79.79,0,0,0,.66.39.63.63,0,0,0,.63-.62l0-1a1.73,1.73,0,0,0-.15-.93,1.07,1.07,0,0,0-1-.51l-.32,0h-.09a.23.23,0,0,1,.14.07q.07.12,0,0a.63.63,0,0,0-.86-.23.65.65,0,0,0-.22.86,1,1,0,0,0,.88.52h.14s.4,0,.2,0h.13l-.08-.05a.16.16,0,0,1-.06-.08c0,.06,0,0,0,0,0,.12,0-.11,0,0s0,.26,0,.4l0,.94.62-.63h0l.31.08a.36.36,0,0,1,.17.23l-.05-.13-.07-.19c-.05-.15-.11-.29-.16-.44s-.21-.55-.3-.83c-.21-.57-.41-1.14-.61-1.71a.63.63,0,0,0-.76-.44.64.64,0,0,0-.44.77Z" transform="translate(-122.82 -221.42)"/><path class="cls-5" d="M433.41,403.76a.63.63,0,0,0,0-1.25.63.63,0,0,0,0,1.25Z" transform="translate(-122.82 -221.42)"/><path class="cls-5" d="M433.57,404.25a.63.63,0,0,0,0-1.25.63.63,0,0,0,0,1.25Z" transform="translate(-122.82 -221.42)"/><path class="cls-5" d="M434,405a.63.63,0,0,0,0-1.25.63.63,0,0,0,0,1.25Z" transform="translate(-122.82 -221.42)"/><path class="cls-5" d="M434,405.44a.63.63,0,0,0,0-1.25.63.63,0,0,0,0,1.25Z" transform="translate(-122.82 -221.42)"/><path class="cls-5" d="M434.66,406.26a.63.63,0,0,0,0-1.25.63.63,0,0,0,0,1.25Z" transform="translate(-122.82 -221.42)"/><path class="cls-5" d="M434,405.61a.63.63,0,0,0,0-1.25.63.63,0,0,0,0,1.25Z" transform="translate(-122.82 -221.42)"/><path class="cls-5" d="M434.11,405.88a.63.63,0,0,0,0-1.25.63.63,0,0,0,0,1.25Z" transform="translate(-122.82 -221.42)"/><path class="cls-5" d="M434.55,406.64a.63.63,0,0,0,0-1.25.63.63,0,0,0,0,1.25Z" transform="translate(-122.82 -221.42)"/><path class="cls-5" d="M434.71,407a.63.63,0,0,0,0-1.25.63.63,0,0,0,0,1.25Z" transform="translate(-122.82 -221.42)"/><path class="cls-5" d="M434.28,406.2a.63.63,0,0,0,0-1.25.63.63,0,0,0,0,1.25Z" transform="translate(-122.82 -221.42)"/><path class="cls-5" d="M433.57,403.6a.63.63,0,0,0,0-1.25.63.63,0,0,0,0,1.25Z" transform="translate(-122.82 -221.42)"/><path class="cls-5" d="M433.3,403.49a.63.63,0,0,0,0-1.25.63.63,0,0,0,0,1.25Z" transform="translate(-122.82 -221.42)"/><path class="cls-5" d="M433.19,403.17a.63.63,0,0,0,0-1.25.63.63,0,0,0,0,1.25Z" transform="translate(-122.82 -221.42)"/><path class="cls-5" d="M433,403a.63.63,0,0,0,0-1.25.63.63,0,0,0,0,1.25Z" transform="translate(-122.82 -221.42)"/><path class="cls-5" d="M433.84,405a.63.63,0,0,0,0-1.25.63.63,0,0,0,0,1.25Z" transform="translate(-122.82 -221.42)"/><path class="cls-5" d="M433.84,405.28a.63.63,0,0,0,0-1.25.63.63,0,0,0,0,1.25Z" transform="translate(-122.82 -221.42)"/><path class="cls-5" d="M434.05,479.23a3,3,0,0,0,1.28-2,.65.65,0,0,0-.23-.65.62.62,0,0,0-.69-.05,1.68,1.68,0,0,0-.71.78l-.18.37c-.06.1,0,0-.06.07s.05,0,0,0c.18,0,.21,0,.1,0l.44,1.07a5.42,5.42,0,0,0,1.24-1.42.65.65,0,0,0-.1-.76s.14.38.09.41a.54.54,0,0,0,.07-.13,3.18,3.18,0,0,0,.16-.32,2.71,2.71,0,0,0,.22-.75l-1.23-.17c0-.14-.05.12,0,0l0,0-.07.1c.06-.08-.05.06-.06.07l-.13.14a3.69,3.69,0,0,0-.54.77c-.14.29-.24.59-.37.88,0-.08,0,.1-.05.1a1.3,1.3,0,0,1-.08.17.88.88,0,0,1-.22.29l1.07.45a1.26,1.26,0,0,0-.07-.51l-.28.7a1.44,1.44,0,0,0,.53-.51,1.92,1.92,0,0,0,.14-.33s0-.19,0-.15a2,2,0,0,1,.23-.3l.17-.25q.18-.27.33-.54a7.57,7.57,0,0,0,.79-2.55c.05-.33-.32-.62-.62-.62a.65.65,0,0,0-.63.62c0,.09-.06.35-.09.5s-.09.33-.14.5a4.89,4.89,0,0,1-.39.91,6.49,6.49,0,0,1-.54.85,1.63,1.63,0,0,0-.31.6.65.65,0,0,1,0,.13s0,0,0,0,0,0-.06,0a.64.64,0,0,0-.29.71c0,.08,0,.09,0,0a.33.33,0,0,1,0,.14.63.63,0,0,0,1.07.44,3.3,3.3,0,0,0,.58-.9c.14-.33.22-.6.36-.86a3.21,3.21,0,0,1,.49-.64,2,2,0,0,0,.49-1.1.62.62,0,0,0-.54-.61.63.63,0,0,0-.69.45,2.17,2.17,0,0,1-.3.85.92.92,0,0,0,.09,1.15l-.1-.75a4.4,4.4,0,0,1-1,1.16.63.63,0,0,0,.44,1.07,1.21,1.21,0,0,0,1.06-.68c.08-.14.14-.29.22-.43s.13-.2.08-.15l.09-.09s0,0,0,0l-.92-.71a2.07,2.07,0,0,1-.1.43,1.17,1.17,0,0,1-.15.3,1,1,0,0,1-.11.17c.05-.07-.06.07-.07.08l-.14.14-.1.09,0,0a.65.65,0,0,0-.23.86.63.63,0,0,0,.86.22Z" transform="translate(-122.82 -221.42)"/><path class="cls-5" d="M433.87,478.83l.1-.32c0-.1,0-.2.09-.3l-.06.15a.21.21,0,0,1,0-.06l-.1.13a.08.08,0,0,1,0,0l-.13.09h0l-.14.06h0l-.17,0h0l-.17,0h0l-.15-.06h0a.39.39,0,0,0,.23.07.56.56,0,0,0,.46-.12.44.44,0,0,0,.16-.17.65.65,0,0,0,.07-.49l-.07-.15a.66.66,0,0,0-.22-.22.58.58,0,0,0-.18-.08.69.69,0,0,0-.35,0h0l-.08,0-.08,0a.91.91,0,0,0-.16.11.61.61,0,0,0-.07.1.39.39,0,0,0-.08.1,1.86,1.86,0,0,0-.1.25l-.16.54a.42.42,0,0,0,0,.25.39.39,0,0,0,.07.23.44.44,0,0,0,.16.17.36.36,0,0,0,.21.11.62.62,0,0,0,.48-.06.67.67,0,0,0,.29-.37Z" transform="translate(-122.82 -221.42)"/><path class="cls-2" d="M432.67,479.93a1.26,1.26,0,0,0,.35-.72,2.38,2.38,0,0,1,.11-.53l-.06.15a.5.5,0,0,1,.08-.14l-.1.13,0,0a.64.64,0,0,0,0-.89.62.62,0,0,0-.44-.18.67.67,0,0,0-.45.18,1.5,1.5,0,0,0-.34.72,1.78,1.78,0,0,1-.1.52l.06-.15a.54.54,0,0,1-.07.13l.1-.13,0,.06a.65.65,0,0,0-.18.44.61.61,0,0,0,.62.62.6.6,0,0,0,.44-.18Z" transform="translate(-122.82 -221.42)"/><path d="M432.06,480.69a13.86,13.86,0,0,1,1.17-2.75,14.19,14.19,0,0,1,.78-1.23c.27-.39.51-.84.08-1.23a.67.67,0,0,0-.76-.1l-.06,0a.62.62,0,0,0-.29.71c.36,1-.14,2.13-.47,3.07a6.46,6.46,0,0,1-1.65,2.64,10.4,10.4,0,0,1-1.18,1,5.4,5.4,0,0,1-1.46.62,11.65,11.65,0,0,1-3.41.61.63.63,0,0,0,0,1.25,13,13,0,0,0,3.9-.71,5.8,5.8,0,0,0,1.67-.74,12.72,12.72,0,0,0,1.48-1.27,7.91,7.91,0,0,0,1.88-3.16,5.55,5.55,0,0,0,.44-3.66l-.28.7.06,0-.75-.09.06.05-.19-.44c0-.18.05-.16-.06,0a2.27,2.27,0,0,0-.18.25c-.13.19-.25.38-.37.58a12.76,12.76,0,0,0-.64,1.14,16.57,16.57,0,0,0-1,2.44c-.24.77,1,1.1,1.21.33Z" transform="translate(-122.82 -221.42)"/><path d="M433.13,474.22c0,.71,0,1.42,0,2.13a.63.63,0,0,0,.63.62.62.62,0,0,0,.62-.62c0-.71,0-1.42,0-2.13a.63.63,0,1,0-1.25,0Z" transform="translate(-122.82 -221.42)"/><path d="M434.34,406.79a11.15,11.15,0,0,0-.14-2.16,3.21,3.21,0,0,0-.34-.94,6.49,6.49,0,0,1-.38-.91,6.07,6.07,0,0,0-.41-.9,1.82,1.82,0,0,0-.27-.41c-.09-.11-.21-.19-.29-.3s-.26-.53-.44-.78a3.55,3.55,0,0,0-.77-.73.63.63,0,0,0-.86.22.65.65,0,0,0,.23.86c.46.33.55.85.91,1.27a3.12,3.12,0,0,1,.47.6,4.51,4.51,0,0,1,.29.72,14.21,14.21,0,0,1,.65,1.58,9.09,9.09,0,0,1,.1,1.88.63.63,0,0,0,1.25,0Z" transform="translate(-122.82 -221.42)"/><path d="M430.34,400.29c.58.7,1.08,1.46,1.6,2.2a6.76,6.76,0,0,1,.65,1.05,8.41,8.41,0,0,1,.41,1.29.62.62,0,0,0,1.2-.34,9.25,9.25,0,0,0-.44-1.35,6.77,6.77,0,0,0-.74-1.28c-.58-.83-1.15-1.67-1.8-2.46a.63.63,0,0,0-.88,0,.65.65,0,0,0,0,.89Z" transform="translate(-122.82 -221.42)"/><path d="M430.22,400.18l.59.67.31.34.06.08c.08.08,0,0,0,0l.05.07c.06.09,0-.09,0,0a3.13,3.13,0,0,0,.41.71l.2.28.09.16s.06.12,0,0,0,0,0,0a.62.62,0,0,0,.76.43.63.63,0,0,0,.44-.77,2.5,2.5,0,0,0-.41-.75c-.07-.1-.15-.2-.22-.31l-.09-.16v0l-.07-.15a3.22,3.22,0,0,0-.62-.82l-.64-.72a.63.63,0,0,0-.89.88Z" transform="translate(-122.82 -221.42)"/><path d="M176,478.89h.14c.06,0-.08,0,0,0s-.05,0,0,0l.13.07.08,0c-.06,0,.06.05.07.06l.22.19a2.66,2.66,0,0,0,.54.39,2.17,2.17,0,0,0,.35.15l.13.05h0l-.05,0,0,0c0-.06-.05-.06,0,0l0,.07.12.23a1.38,1.38,0,0,0,.48.48,2.53,2.53,0,0,0,.53.24l.12,0h0l.1.06c.11.06-.08-.07,0,0a.62.62,0,0,0,.88-.88,1.71,1.71,0,0,0-.63-.39l-.22-.08s-.16-.08,0,0l-.1-.05c-.07,0-.06,0,0,0s-.08-.11,0,0a2.53,2.53,0,0,0-.13-.22,1.25,1.25,0,0,0-.52-.57,2.17,2.17,0,0,0-.35-.15s-.17-.07,0,0l-.13-.07-.11-.07c.1.06,0,0-.06-.05l-.21-.19a1.91,1.91,0,0,0-1.41-.6.66.66,0,0,0-.63.63.63.63,0,0,0,.63.62Z" transform="translate(-122.82 -221.42)"/><path d="M174.64,479a5.66,5.66,0,0,0,1,.8c.34.24.73.38,1.07.61a4.11,4.11,0,0,0,1,.55,10,10,0,0,1,1,.58c.38.18.79.24,1.16.45a4.5,4.5,0,0,0,1.23.43c.22.05.45.07.67.13a4.2,4.2,0,0,1,.52.26,9.23,9.23,0,0,0,1.28.45.63.63,0,0,0,.33-1.21c-.77-.22-1.45-.63-2.24-.79a4,4,0,0,1-1.15-.35c-.18-.1-.34-.19-.52-.27s-.45-.11-.66-.19-.57-.41-.89-.55a3.66,3.66,0,0,1-.89-.43,11.3,11.3,0,0,0-1-.59,4.61,4.61,0,0,1-.94-.76c-.56-.58-1.45.3-.89.88Z" transform="translate(-122.82 -221.42)"/><path d="M177.47,480.89a.75.75,0,0,0,.17.14s.28.16.17.07,0,0,0,.06a2.11,2.11,0,0,0,.23.19,2.06,2.06,0,0,0,.75.35.82.82,0,0,1,.37.13l.38.23a4.89,4.89,0,0,0,.9.34c.26.06.53.07.79.14s.58.25.86.36a4.67,4.67,0,0,0,.82.2c.31.07.59.26.92.14a.63.63,0,1,0-.33-1.21c.24.05.25,0,0,0a.49.49,0,0,0-.17-.06,2.41,2.41,0,0,0-.35-.07,3.74,3.74,0,0,1-.74-.23,4.71,4.71,0,0,0-.81-.32c-.23-.05-.47-.07-.7-.12a2.45,2.45,0,0,1-.64-.23,5,5,0,0,0-.75-.42,1.68,1.68,0,0,1-.64-.22c-.07-.05-.12-.13-.19-.18s-.5-.35-.24-.13a.64.64,0,0,0-.88,0,.62.62,0,0,0,0,.88Z" transform="translate(-122.82 -221.42)"/><path d="M179.6,297.71c0,.28,0,.55,0,.83a2.53,2.53,0,0,0,.27,1,.62.62,0,0,0,.37.28.64.64,0,0,0,.41,0,.62.62,0,0,0,.36-.74c-.06-.17-.15-.33-.23-.5l.07.15a.43.43,0,0,1-.05-.16l0,.17a.75.75,0,0,1,0-.15l0,.17a1.26,1.26,0,0,0,0-.64.61.61,0,0,0-.76-.44.62.62,0,0,0-.44.77.64.64,0,0,0,0,.07l0-.16a.34.34,0,0,1,0,.1l0-.17a1.42,1.42,0,0,0,0,.71,5.44,5.44,0,0,0,.22.5l-.06-.15a.14.14,0,0,1,0,.07l1.15-.49,0-.07.07.15a1.59,1.59,0,0,1-.14-.47l0,.17a2.57,2.57,0,0,1,0-.48v-.49a.64.64,0,0,0-.63-.62.63.63,0,0,0-.62.62Z" transform="translate(-122.82 -221.42)"/><path d="M181,297.32a1.82,1.82,0,0,1,0-.33l0,.16a2.21,2.21,0,0,0,.05-.63.47.47,0,0,0-.05-.24.46.46,0,0,0-.13-.2.49.49,0,0,0-.2-.13.53.53,0,0,0-.24-.06.64.64,0,0,0-.45.19l-.09.12a.62.62,0,0,0-.09.32,1.37,1.37,0,0,1,0,.35l0-.17a2.64,2.64,0,0,0-.05.62.6.6,0,0,0,.05.24.46.46,0,0,0,.13.2.41.41,0,0,0,.2.13.54.54,0,0,0,.25.06.63.63,0,0,0,.44-.19l.1-.12a.69.69,0,0,0,.08-.32Z" transform="translate(-122.82 -221.42)"/><path d="M181,296.21l0-.24a.8.8,0,0,0,0-.26.84.84,0,0,0-.19-.33l.1.12s0,0,0,0l.06.15h0l0,.17h0l0,.16v0l-.06.15a1.09,1.09,0,0,0,.12-.46,1.28,1.28,0,0,0-.07-.34.53.53,0,0,0-.11-.21.4.4,0,0,0-.18-.16.37.37,0,0,0-.23-.07.43.43,0,0,0-.25,0,.65.65,0,0,0-.37.28.61.61,0,0,0-.06.49s0,.09,0,.14l0-.17a.22.22,0,0,1,0,.08l0-.17s0,0,0,.06l.06-.15a.87.87,0,0,0-.1.39.63.63,0,0,0,.09.33,1,1,0,0,0,.12.16l-.1-.13,0,0-.07-.15a.08.08,0,0,1,0,0l0-.17c0,.11,0,.21,0,.32a.62.62,0,0,0,.18.44.46.46,0,0,0,.2.13.39.39,0,0,0,.24.05.6.6,0,0,0,.44-.18.66.66,0,0,0,.19-.44Z" transform="translate(-122.82 -221.42)"/><path d="M175.67,299.65l.62-1,.31-.45.16-.23c.06-.08-.09.11,0,0l.09-.11c.11-.13.23-.26.35-.38l.2-.19.07-.05c-.07,0,.07-.05.07-.05s.26-.11.38-.18a1,1,0,0,0,.43-.44.64.64,0,0,0-.22-.85.76.76,0,0,0-1.15.65.63.63,0,0,0,.62.63.65.65,0,0,0,.63-.63l-.73.43-.23-.86s-.06.08,0,0,.15-.11.06-.07l-.18.09a2.55,2.55,0,0,0-.5.3,5.38,5.38,0,0,0-.75.76,19.86,19.86,0,0,0-1.33,2,.62.62,0,0,0,.22.85.64.64,0,0,0,.86-.22Z" transform="translate(-122.82 -221.42)"/><path d="M176.93,299.09l.11-.16a.58.58,0,0,0,.1-.21h0l0-.17h0s0-.07,0-.09,0-.06,0-.09a.61.61,0,0,0-.16-.28.36.36,0,0,0-.14-.1.45.45,0,0,0-.23-.08.53.53,0,0,0-.25,0,.45.45,0,0,0-.21.12.44.44,0,0,0-.16.17l-.06.15a.62.62,0,0,0,0,.33l.06.15a.69.69,0,0,0,.22.23h0l-.13-.1h0l-.1-.12h0l-.06-.15h0l0-.17h0l0-.16h0l.07-.15,0,.05,0,.06-.08.11a.45.45,0,0,0-.07.23.56.56,0,0,0,.12.46.55.55,0,0,0,.18.16l.15.06a.62.62,0,0,0,.33,0l.15-.06a.66.66,0,0,0,.22-.22Z" transform="translate(-122.82 -221.42)"/><path d="M176.62,299.41v0a.43.43,0,0,0,0-.25.48.48,0,0,0-.07-.23.69.69,0,0,0-.16-.18.51.51,0,0,0-.22-.11l-.16,0a.72.72,0,0,0-.32.08l-.12.1a.53.53,0,0,0-.16.28l0,0a.53.53,0,0,0,0,.25.48.48,0,0,0,.07.23.58.58,0,0,0,.17.18.53.53,0,0,0,.21.11l.16,0a.59.59,0,0,0,.32-.09l.13-.09a.71.71,0,0,0,.16-.28Z" transform="translate(-122.82 -221.42)"/></g></svg>